<svg xmlns="http://www.w3.org/2000/svg" viewBox="0 0 40 40">
  <path d="M17.343 2.657L20 0l20 20-20 20-2.657-2.657L34.686 20 17.343 2.657z" fill="#D41C1C"/>
  <path d="M13.874 6.126l2.657-2.657L33.063 20 16.531 36.531l-2.657-2.657L27.749 20 13.874 6.126z" fill="#D41C1C"/>
  <path d="M0 20L13.063 6.937 26.126 20 13.063 33.063 10.406 30.406 20.812 20 13.063 12.251 2.657 22.657 0 20z" fill="#D41C1C"/>
  <path d="M13.063 13.874l-2.657 2.657L13.874 20 6.937 26.937l2.657 2.657L19.188 20 13.063 13.874z" fill="#D41C1C"/>
  <path d="M6.126 26.126l-2.657-2.657 6.098-6.098 2.657 2.657-6.098 6.098z" fill="#D41C1C"/>
</svg>
